<?xml version="1.0" standalone="no"?>
<!DOCTYPE svg PUBLIC "-//W3C//DTD SVG 20010904//EN"
 "http://www.w3.org/TR/2001/REC-SVG-20010904/DTD/svg10.dtd">
<svg version="1.0" xmlns="http://www.w3.org/2000/svg"
 width="260.000000pt" height="260.000000pt" viewBox="0 0 260.000000 260.000000"
 preserveAspectRatio="xMidYMid meet">
<metadata>
Created by potrace 1.14, written by Peter Selinger 2001-2017
</metadata>
<g transform="translate(0.000000,260.000000) scale(0.100000,-0.100000)"
fill="#000000" stroke="none">
<path d="M0 1300 l0 -1300 1300 0 1300 0 0 1300 0 1300 -1300 0 -1300 0 0
-1300z m1550 1236 c258 -55 469 -172 658 -363 146 -148 221 -270 288 -468 50
-150 67 -279 60 -450 -8 -201 -44 -341 -133 -519 -61 -123 -121 -205 -233
-317 -240 -241 -516 -362 -860 -376 -113 -5 -153 -2 -248 16 -267 51 -477 160
-674 349 -139 134 -247 308 -306 492 -54 172 -57 192 -56 400 1 196 3 208 47
365 55 194 187 409 340 552 154 144 407 281 566 308 19 3 37 8 40 10 4 2 38 6
76 10 39 4 72 10 75 12 10 11 288 -6 360 -21z"/>
<path d="M1105 2405 c-389 -73 -704 -326 -845 -679 -36 -89 -36 -125 0 -143
19 -10 172 -13 672 -13 l647 0 35 31 c19 16 51 60 72 97 20 37 81 144 135 237
54 94 100 181 103 195 3 14 8 35 11 46 5 17 -3 29 -37 57 -24 19 -63 44 -88
55 -97 43 -170 72 -207 81 -21 6 -65 17 -98 26 -88 23 -301 28 -400 10z"/>
<path d="M2031 2033 c-15 -16 -66 -95 -113 -178 -73 -127 -161 -279 -333 -575
-17 -30 -57 -98 -87 -150 -70 -120 -108 -196 -108 -213 0 -14 257 -467 324
-571 36 -57 38 -58 74 -53 33 4 104 34 172 72 13 8 28 23 32 34 4 12 16 21 28
21 22 0 185 158 175 168 -3 3 9 20 26 38 34 35 38 42 86 132 77 143 118 318
122 513 5 266 -104 565 -272 743 -53 55 -85 60 -126 19z"/>
<path d="M240 1423 c-51 -10 -60 -29 -60 -125 0 -410 229 -793 592 -987 96
-52 160 -76 282 -108 91 -24 118 -27 277 -27 152 1 181 3 215 20 68 33 72 22
-161 424 -327 562 -418 717 -439 745 -45 58 -90 65 -402 64 -154 -1 -290 -4
-304 -6z"/>
<path d="M1153 1423 c-45 -9 -38 -43 34 -168 37 -65 80 -128 95 -139 l28 -20
30 29 c68 65 149 240 123 266 -28 28 -226 48 -310 32z"/>
</g>
</svg>
