<svg width="38" height="36" viewBox="0 0 38 36" fill="none" xmlns="http://www.w3.org/2000/svg">
<path fill-rule="evenodd" clip-rule="evenodd" d="M2.09825 8.84021C2.03349 8.7271 1.97228 8.60995 1.91659 8.48932C1.76967 8.17104 1.6101 7.7195 1.6018 7.18993C1.48799 5.88251 2.22658 4.86916 3.08516 4.35913C5.99363 2.63136 8.88865 6.11442 10.2829 8.13866C10.3435 8.10715 10.4044 8.07603 10.4654 8.0453C11.0175 6.07298 12.4972 4.42221 13.983 3.0767C16.0342 1.21921 18.9123 -0.024945 21.6961 0.000379549C22.6994 0.00950783 23.4877 0.19057 24.0228 0.368974C26.8215 -0.111927 28.9189 0.430486 30.3896 1.26949C33.1643 2.85241 34.4586 6.05017 33.5725 9.18606C33.2383 10.3688 32.657 11.4791 31.9703 12.4368C32.0129 12.4908 32.0551 12.5448 32.0969 12.5987C32.9365 13.6409 33.5403 14.6449 34.7809 16.8027L34.7809 16.8027C35.3081 17.7197 35.6252 18.2276 36.0492 18.7419C36.0644 18.7563 36.0922 18.7826 36.137 18.824L36.1655 18.8504L36.1655 18.8505C36.257 18.935 36.3886 19.0567 36.5166 19.1832C36.6514 19.3164 36.8407 19.5114 37.0075 19.7318C37.0909 19.8419 37.205 20.0054 37.3043 20.2088C37.3907 20.3857 37.5534 20.7662 37.5392 21.2637L37.5391 21.2647C37.516 22.0562 37.0731 22.5652 36.9363 22.7164C36.7858 22.8829 36.6121 23.0281 36.5487 23.0811L36.543 23.0858C36.54 23.0884 36.537 23.091 36.534 23.0935C35.6713 23.82 34.9836 24.779 34.1975 25.9834C34.0999 26.1329 34 26.2876 33.8975 26.4463L33.8975 26.4463C30.3461 31.9455 24.8011 36 17.9334 36C11.7391 36 7.47047 32.6359 3.9572 29.4214C3.36465 28.8893 3.12951 28.1811 3.14854 27.5292C3.16263 27.0466 3.3114 26.6448 3.43335 26.3827C3.26517 26.3511 3.09829 26.3144 2.93694 26.2714C2.53416 26.1641 1.95884 25.9681 1.45832 25.5628C0.875328 25.0907 0.386622 24.3107 0.46236 23.2991C0.691287 20.2417 1.75811 17.1869 3.44329 14.5399C3.22933 14.3941 3.01162 14.2355 2.80293 14.0661C2.34656 13.6954 1.73703 13.1192 1.394 12.328C0.982517 11.3789 1.02854 10.2764 1.70717 9.30166C1.71391 9.29199 1.72073 9.28237 1.72764 9.27282C1.84293 9.11335 1.96696 8.9693 2.09825 8.84021Z" fill="#FFBA24"/>
<path fill-rule="evenodd" clip-rule="evenodd" d="M17.8056 34.0607C12.4091 34.0607 8.62784 31.1653 5.16499 27.9959C5.16499 27.9959 5.03219 27.8792 5.00495 27.7952C4.93159 27.569 5.2707 27.0364 5.62691 26.4769L5.627 26.4768L5.62704 26.4767C6.12703 25.6914 6.6606 24.8533 6.13446 24.7359C5.95662 24.6962 5.64663 24.6753 5.27762 24.6503L5.27745 24.6502L5.27611 24.6502L5.2759 24.6501C4.07491 24.5688 2.25063 24.4452 2.32133 23.5009C2.57285 20.1417 3.97597 16.7364 6.17794 14.0208C5.58839 13.6187 4.89991 13.1643 4.68665 13.0845C4.68665 13.0845 2.32418 11.7718 3.21444 10.4931C3.32659 10.338 3.48274 10.2198 3.66279 10.1539C3.84285 10.0879 4.03857 10.0772 4.22478 10.1231C4.22478 10.1231 5.08612 10.1716 6.49245 11.3374C6.8066 11.6599 7.13732 12.0342 7.48359 12.4701C7.56842 12.5769 7.72401 12.5949 7.83111 12.5103C7.93821 12.4257 7.95626 12.2705 7.87142 12.1638C7.65756 11.8946 7.44889 11.6475 7.24563 11.4205C7.16082 11.3082 7.07328 11.1979 6.9831 11.0897C6.9831 11.0897 5.22973 9.25197 4.86751 9.02431C4.86751 9.02431 3.42109 7.78019 3.46795 7.14636C3.45704 7.07432 3.45432 7.00129 3.45985 6.92865C3.49527 6.63387 3.64534 6.36474 3.87776 6.17917C4.11019 5.99361 4.40639 5.90644 4.70263 5.93642C4.85699 5.94746 5.00792 5.98719 5.14762 6.05357C5.14762 6.05357 7.28185 6.91248 9.49593 10.9151C10.3241 10.3387 11.2074 9.84882 12.137 9.46374C12.1217 7.00045 15.761 4.11759 15.761 4.11759C20.6168 0.762458 23.6973 2.49014 23.6973 2.49014C29.0081 1.32986 30.8686 4.48623 30.8686 4.48623C31.2234 4.94719 31.4771 5.47735 31.6132 6.04233C31.6914 6.37651 31.7314 6.71845 31.7325 7.06161C31.7325 7.34361 31.6405 8.71114 31.1379 9.80008C30.6598 10.7972 30.019 11.7083 29.2415 12.4961C29.6685 12.9718 30.056 13.4351 30.406 13.8873C31.139 14.7949 31.6698 15.6641 32.9258 17.8487C33.4793 18.8116 33.8714 19.4503 34.4354 20.124C34.6347 20.362 34.8207 20.5548 34.9776 20.7173C35.0339 20.7756 35.0909 20.8296 35.1444 20.8803C35.298 21.0257 35.4231 21.1442 35.4198 21.2596C35.4164 21.3749 35.2847 21.486 35.1229 21.6224L35.1229 21.6225C35.0665 21.67 35.0065 21.7206 34.947 21.7755L34.9469 21.7756L34.9461 21.7763C34.7803 21.9295 34.5837 22.111 34.3715 22.3368C33.7695 22.9769 33.3411 23.5921 32.7329 24.5215C31.2883 26.7292 30.7202 27.5433 29.877 28.4534C29.6082 28.7435 29.375 28.9608 29.1822 29.1222C26.266 32.2745 22.1072 34.0607 17.8056 34.0607ZM15.3972 11.3768C15.3981 11.3711 15.3959 11.3653 15.3914 11.3616C15.3869 11.358 15.3807 11.3571 15.3753 11.3593C14.4752 11.7268 13.5319 12.2012 12.8167 12.7661C12.7948 12.7833 12.7808 12.8086 12.7778 12.8362C12.7747 12.8639 12.7829 12.8917 12.8005 12.9132C13.6314 13.9325 15.302 16.8331 15.302 20.2368C15.302 21.8343 14.6503 23.4044 13.6978 24.8104C12.7453 26.2162 11.4925 27.4569 10.2922 28.3953C10.2479 28.4299 10.2392 28.4934 10.2725 28.5387C10.871 29.353 12.9123 31.0825 16.3527 31.6226C16.3809 31.627 16.4097 31.6197 16.4323 31.6025C20.9586 28.1564 23.1196 21.9776 21.7001 16.5038C21.698 16.4958 21.6902 16.4908 21.682 16.4921C20.3769 16.7111 18.9447 16.7911 17.6759 16.3871C16.7561 16.0941 15.911 15.4758 15.5488 14.4498C15.2094 13.4882 15.2266 12.3706 15.3972 11.3768ZM27.7363 13.9858C27.7709 13.9647 27.8156 13.9698 27.8445 13.9982C28.4047 14.5489 29.2423 15.5395 29.9404 16.7269C30.6379 17.9131 31.2017 19.3051 31.2017 20.6561C31.2017 22.0083 30.5635 23.5444 29.7759 24.9078C28.9867 26.2737 28.0401 27.4788 27.4079 28.1722C27.3791 28.2037 27.3317 28.2102 27.2955 28.1874C27.2593 28.1648 27.2445 28.1194 27.2606 28.0798C27.7023 26.9919 28.5897 23.9765 28.5897 20.6561C28.5897 17.3397 27.4846 15.2221 26.9452 14.5879C26.9285 14.5683 26.9213 14.5424 26.9254 14.517C26.9294 14.4916 26.9444 14.4692 26.9665 14.4558L27.7363 13.9858Z" fill="#140E00"/>
<path fill-rule="evenodd" clip-rule="evenodd" d="M25.6217 12.5621C23.3642 14.2285 20.5597 14.4019 20.5597 14.4019C18.3873 14.5717 17.791 14.1267 17.6513 13.7308C17.0145 11.3001 18.7626 8.3647 20.5597 6.76463C22.7022 4.85703 26.4216 3.54983 28.6834 5.6768C29.3224 6.28328 29.365 7.20572 29.365 7.20572C29.4664 9.48331 27.3738 11.4527 25.6217 12.5621Z" fill="white"/>
<path fill-rule="evenodd" clip-rule="evenodd" d="M7.32454 21.5433C7.74452 21.7889 8.23213 21.9201 8.71528 21.9609C10.0768 22.076 11.8784 21.8217 12.4869 20.4141C12.5148 20.3496 12.54 20.2827 12.562 20.2158C12.5642 20.2091 12.5618 20.2018 12.556 20.1977C12.5503 20.1937 12.5426 20.1939 12.537 20.1982C12.2084 20.4522 11.8079 20.6225 11.3645 20.6729C10.2433 20.8005 9.21645 20.1197 8.86976 19.0951C9.53239 19.2277 10.3302 18.8752 10.4313 18.1497C10.5185 17.5236 10.0121 16.9384 9.30197 16.8291C9.93824 16.0785 11.0115 15.8016 11.9311 16.1498C11.9376 16.1523 11.9449 16.1503 11.9492 16.1449C11.9536 16.1396 11.954 16.132 11.9503 16.1263C11.5873 15.567 11.084 15.1853 10.4218 15.1853C10.2317 15.1853 9.73622 15.236 9.12047 15.6773C8.19858 16.338 7.55804 17.4069 7.12866 18.4383C7.02169 18.6952 6.94061 18.9629 6.86725 19.231C6.75447 19.6432 6.64766 20.1605 6.67395 20.5754C6.70399 21.0274 6.96417 21.3326 7.32454 21.5433Z" fill="white"/>
</svg>
